HIERARCHY
ROOT Hips
{
	OFFSET 0.000000 0.000000 0.000000
	CHANNELS 6 Xposition Yposition Zposition Zrotation Yrotation Xrotation 
	JOINT LHipJoint
	{
		OFFSET 0.000000 0.000000 0.000000
		CHANNELS 3 Zrotation Yrotation Xrotation
		JOINT LeftUpLeg
		{
			OFFSET 1.363060 -1.794630 0.839290
			CHANNELS 3 Zrotation Yrotation Xrotation
			JOINT LeftLeg
			{
				OFFSET 2.448110 -6.726130 0.000000
				CHANNELS 3 Zrotation Yrotation Xrotation
				JOINT LeftFoot
				{
					OFFSET 2.562200 -7.039590 0.000000
					CHANNELS 3 Zrotation Yrotation Xrotation
					JOINT LeftToeBase
					{
						OFFSET 0.157640 -0.433110 2.322550
						CHANNELS 3 Zrotation Yrotation Xrotation
						End Site
						{
							OFFSET 0.000000 0.000000 0.000000
						}
					}
				}
			}
		}
	}
	JOINT RHipJoint
	{
		OFFSET 0.000000 0.000000 0.000000
		CHANNELS 3 Zrotation Yrotation Xrotation
		JOINT RightUpLeg
		{
			OFFSET -1.305520 -1.794630 0.839290
			CHANNELS 3 Zrotation Yrotation Xrotation
			JOINT RightLeg
			{
				OFFSET -2.542530 -6.985550 0.000000
				CHANNELS 3 Zrotation Yrotation Xrotation
				JOINT RightFoot
				{
					OFFSET -2.568260 -7.056230 0.000000
					CHANNELS 3 Zrotation Yrotation Xrotation
					JOINT RightToeBase
					{
						OFFSET -0.164730 -0.452590 2.363150
						CHANNELS 3 Zrotation Yrotation Xrotation
						End Site
						{
							OFFSET 0.000000 0.000000 0.000000
						}
					}
				}
			}
		}
	}
	JOINT LowerBack
	{
		OFFSET 0.000000 0.000000 0.000000
		CHANNELS 3 Zrotation Yrotation Xrotation
		JOINT Spine
		{
			OFFSET 0.028270 2.035590 -0.193380
			CHANNELS 3 Zrotation Yrotation Xrotation
			JOINT Spine1
			{
				OFFSET 0.056720 2.048850 -0.042750
				CHANNELS 3 Zrotation Yrotation Xrotation
				JOINT Neck
				{
					OFFSET 0.000000 0.000000 0.000000
					CHANNELS 3 Zrotation Yrotation Xrotation
					JOINT Neck1
					{
						OFFSET -0.054170 1.746240 0.172020
						CHANNELS 3 Zrotation Yrotation Xrotation
						JOINT Head
						{
							OFFSET 0.104070 1.761360 -0.123970
							CHANNELS 3 Zrotation Yrotation Xrotation
							End Site
							{
								OFFSET 0.000000 0.000000 0.000000
							}
						}
					}
				}
				JOINT LeftShoulder
				{
					OFFSET 0.000000 0.000000 0.000000
					CHANNELS 3 Zrotation Yrotation Xrotation
					JOINT LeftArm
					{
						OFFSET 3.362410 1.200890 -0.311210
						CHANNELS 3 Zrotation Yrotation Xrotation
						JOINT LeftForeArm
						{
							OFFSET 4.983000 -0.000000 -0.000000
							CHANNELS 3 Zrotation Yrotation Xrotation
							JOINT LeftHand
							{
								OFFSET 3.483560 -0.000000 -0.000000
								CHANNELS 3 Zrotation Yrotation Xrotation
								JOINT LeftFingerBase
								{
									OFFSET 0.000000 0.000000 0.000000
									CHANNELS 3 Zrotation Yrotation Xrotation
									JOINT LeftHandIndex1
									{
										OFFSET 0.715260 -0.000000 -0.000000
										CHANNELS 3 Zrotation Yrotation Xrotation
										End Site
										{
											OFFSET 0.000000 0.000000 0.000000
										}
									}
								}
								JOINT LThumb
								{
									OFFSET 0.000000 0.000000 0.000000
									CHANNELS 3 Zrotation Yrotation Xrotation
									End Site
									{
										OFFSET 0.000000 0.000000 0.000000
									}
								}
							}
						}
					}
				}
				JOINT RightShoulder
				{
					OFFSET 0.000000 0.000000 0.000000
					CHANNELS 3 Zrotation Yrotation Xrotation
					JOINT RightArm
					{
						OFFSET -3.136600 1.374050 -0.404650
						CHANNELS 3 Zrotation Yrotation Xrotation
						JOINT RightForeArm
						{
							OFFSET -5.241900 -0.000000 -0.000000
							CHANNELS 3 Zrotation Yrotation Xrotation
							JOINT RightHand
							{
								OFFSET -3.444170 -0.000000 -0.000000
								CHANNELS 3 Zrotation Yrotation Xrotation
								JOINT RightFingerBase
								{
									OFFSET 0.000000 0.000000 0.000000
									CHANNELS 3 Zrotation Yrotation Xrotation
									JOINT RightHandIndex1
									{
										OFFSET -0.622530 -0.000000 -0.000000
										CHANNELS 3 Zrotation Yrotation Xrotation
										End Site
										{
											OFFSET 0.000000 0.000000 0.000000
										}
									}
								}
								JOINT RThumb
								{
									OFFSET 0.000000 0.000000 0.000000
									CHANNELS 3 Zrotation Yrotation Xrotation
									End Site
									{
										OFFSET 0.000000 0.000000 0.000000
									}
								}
							}
						}
					}
				}
			}
		}
	}
}
MOTION
Frames: 5
Frame Time: 0.008333
1.225698 62.450758 15.926072 -15.086804 39.993428 -165.245820 -159.882634 -77.614310 -52.404308 151.819851 -53.363868 30.784425 13.974388 -27.917824 -145.067477 174.602736 -64.628803 -122.472447 0.292500 -3.478100 -9.612800 34.343617 -55.325499 131.323000 142.687205 -88.581794 87.527048 -45.337494 -59.267366 -45.921955 -72.161415 38.759787 50.206333 -1.915300 -8.687300 24.821900 -134.939316 -38.340912 -116.571459 -147.817169 24.857662 -121.527945 -29.765037 32.051593 -24.468352 -164.660422 -0.479981 -59.134926 163.635396 -38.246501 -105.600243 1.032000 -0.413500 -2.391900 124.435483 33.736598 -142.338358 -157.452446 28.115506 -51.412159 -24.395652 -60.288286 -33.108279 -18.117658 0.020857 17.705323 18.003894 -27.761785 7.276300 -7.125000 0.000000 0.000000 6.391200 42.942700 -0.325900 37.137349 -6.200483 171.767174 -37.008339 36.486446 -57.125348 102.938069 71.838542 -51.700790 -3.882166 41.665068 29.026086 -32.075330 80.345448 -21.174500 7.125000 0.000000 0.000000 -5.182600 4.506700 -5.596000 
1.205867 61.969942 17.707736 90.706639 69.884648 107.228158 -13.007107 21.860355 104.247878 141.258562 45.199157 140.273488 5.284403 60.184891 -117.149210 -111.205189 -9.984800 148.327075 0.284000 -3.427500 -9.471400 147.328793 11.421382 91.625942 124.282553 13.395466 -90.698260 85.366201 -1.428997 86.501185 -152.344456 83.185670 34.551419 -2.183200 -9.237700 26.541900 4.169370 20.719689 -122.004961 -107.457775 83.979912 -52.979448 -96.358890 -77.057816 112.681931 -12.507363 6.329772 -67.059771 -158.509716 -18.380250 106.308715 1.159700 -0.406100 -2.311700 -86.223404 -57.182869 116.548649 -152.345065 -61.912446 -53.281182 -105.759600 -43.723656 142.986015 7.333210 -23.702373 22.873961 7.651669 -47.831911 7.572501 -7.125000 0.000000 0.000000 6.908500 43.268700 -0.296700 -1.871614 6.857648 -156.477495 -15.566133 52.485963 160.552335 -138.861815 -30.745896 139.840464 18.520216 59.974245 -28.483536 -59.921738 42.540905 -21.481601 7.125000 0.000000 0.000000 -5.780900 4.303700 -6.229200 
1.239962 61.596979 19.496009 97.648274 40.738034 110.921679 -0.587708 -57.056912 161.177230 122.292096 41.305176 105.641362 88.796894 66.774367 132.425183 -93.608306 -33.762764 97.014744 0.225600 -3.057100 -8.437800 130.051413 27.197929 -163.759884 162.773214 -4.819707 -55.123606 31.547579 11.616065 164.830232 130.039485 45.559935 -98.224688 -3.315200 -11.188600 32.918600 92.760302 35.575327 21.362765 -32.016791 -28.224020 1.302664 43.307792 -26.524991 -43.159710 53.472250 80.802449 34.371082 -6.365539 88.490897 -8.519368 1.168700 -0.394500 -2.159500 -68.058514 -18.567782 -10.967945 -106.692591 1.748708 -91.700398 -169.001121 33.020301 -85.676960 22.900042 18.210520 0.935485 55.746717 -24.877016 7.599900 -7.125000 0.000000 0.000000 6.137200 43.635300 -0.207500 -12.717482 62.307864 160.131128 76.065207 -49.014727 -104.961426 29.127001 80.282484 -69.159958 100.015743 1.943134 47.518560 68.279306 25.952677 -21.379401 7.125000 0.000000 0.000000 -5.993300 3.945400 -6.425800 
1.281364 61.294991 21.230008 -30.308340 -70.241665 42.835443 135.529466 50.094843 -143.330151 -140.218001 -64.773892 -57.273690 -118.730317 77.145502 42.377037 178.071779 73.401293 77.166451 0.183500 -2.759400 -7.609600 54.255087 81.786950 16.817569 -51.992996 64.017313 -30.926489 -134.149485 -6.736501 -124.086842 -105.523087 76.304902 168.425059 -4.392300 -12.665000 38.126900 125.393502 81.604480 -58.581455 93.356562 14.854387 171.933158 -90.322543 61.204221 174.776862 -101.015334 -8.832301 117.934273 156.408455 77.394787 99.571624 1.237900 -0.405700 -2.187200 -103.050610 -82.943299 132.370715 -24.547664 -26.232725 -179.964142 45.298716 -88.955365 104.639634 35.675316 5.287406 -5.543693 69.468305 -16.588708 7.501300 -7.125000 0.000000 0.000000 5.177300 43.861400 -0.145900 -18.052853 -55.615435 -118.545073 -166.848598 -59.019841 -44.122073 -47.022464 -22.424804 -88.375125 12.108443 77.809113 68.243487 156.956267 71.190454 158.830200 7.125000 0.000000 0.000000 -5.660900 3.998400 -6.070700 
1.318243 61.048320 22.969226 154.198263 -51.126334 106.100468 -39.056004 -4.375549 175.388781 168.728310 -47.504554 156.852767 -134.906226 -44.899213 -76.420399 -148.033181 -67.039082 117.706645 0.134800 -2.366700 -6.520300 125.071894 13.754229 60.043565 84.144505 -84.246913 -68.805665 44.948686 -46.651643 -171.864534 142.770578 -18.222455 -163.844255 -4.994500 -13.377600 40.799000 138.394727 71.014521 20.970039 -79.834563 39.498315 45.009018 110.013066 -55.087150 7.618722 -135.941058 0.605562 121.016447 49.159114 2.996340 21.526502 1.448700 -0.423300 -2.358100 -35.951019 33.683559 93.043754 -68.697245 -82.360787 82.312942 136.769964 -84.609657 100.255813 66.584296 45.387704 -41.788617 100.490304 48.679585 7.864499 -7.125000 0.000000 0.000000 5.420200 44.431200 -0.076300 89.432430 85.695909 63.926314 -14.567635 -27.041570 -70.671287 -38.936004 0.981917 104.338585 42.174524 84.056615 0.217861 159.192807 72.180980 158.840000 7.125000 0.000000 0.000000 -5.770700 3.871700 -6.177800 
